HIERARCHY
ROOT Hips
{
	OFFSET 0.00000 0.00000 0.00000
	CHANNELS 6 Xposition Yposition Zposition Zrotation Yrotation Xrotation 
	JOINT LHipJoint
	{
		OFFSET 0 0 0
		CHANNELS 3 Zrotation Yrotation Xrotation
		JOINT LeftHip
		{
			OFFSET 1.41261 -1.82971 0.84908
			CHANNELS 3 Zrotation Yrotation Xrotation
			JOINT LeftKnee
			{
				OFFSET 2.52554 -6.93888 0.00000
				CHANNELS 3 Zrotation Yrotation Xrotation
				JOINT LeftAnkle
				{
					OFFSET 2.56654 -7.05152 0.00000
					CHANNELS 3 Zrotation Yrotation Xrotation
					JOINT LeftToe
					{
						OFFSET 0.21698 -0.59616 1.85369
						CHANNELS 3 Zrotation Yrotation Xrotation
						End Site
						{
							OFFSET 0.00000 -0.00000 0.97832
						}
					}
				}
			}
		}
	}
	JOINT RHipJoint
	{
		OFFSET 0 0 0
		CHANNELS 3 Zrotation Yrotation Xrotation
		JOINT RightHip
		{
			OFFSET -1.12808 -1.82971 0.84907
			CHANNELS 3 Zrotation Yrotation Xrotation
			JOINT RightKnee
			{
				OFFSET -2.53425 -6.96280 0.00000
				CHANNELS 3 Zrotation Yrotation Xrotation
				JOINT RightAnkle
				{
					OFFSET -2.58413 -7.09983 0.00000
					CHANNELS 3 Zrotation Yrotation Xrotation
					JOINT RightToe
					{
						OFFSET -0.26437 -0.72636 1.92241
						CHANNELS 3 Zrotation Yrotation Xrotation
						End Site
						{
							OFFSET -0.00000 -0.00000 1.02667
						}
					}
				}
			}
		}
	}
	JOINT lowerback
	{
		OFFSET 0 0 0
		CHANNELS 3 Zrotation Yrotation Xrotation
		JOINT Chest
		{
			OFFSET -0.02096 2.02288 -0.14752
			CHANNELS 3 Zrotation Yrotation Xrotation
			JOINT Chest2
			{
				OFFSET 0.03477 2.03136 -0.02358
				CHANNELS 3 Zrotation Yrotation Xrotation
				JOINT lowerneck
				{
					OFFSET 0 0 0
					CHANNELS 3 Zrotation Yrotation Xrotation
					JOINT Neck
					{
						OFFSET 0.00174 1.74359 0.19336
						CHANNELS 3 Zrotation Yrotation Xrotation
						JOINT Head
						{
							OFFSET -0.03054 1.76140 -0.17751
							CHANNELS 3 Zrotation Yrotation Xrotation
							End Site
							{
								OFFSET -0.00863 1.77239 -0.08120
							}
						}
					}
				}
				JOINT LeftCollar
				{
					OFFSET 0 0 0
					CHANNELS 3 Zrotation Yrotation Xrotation
					JOINT LeftShoulder
					{
						OFFSET 3.68685 1.32687 -0.67367
CHANNELS 3 Zrotation Xrotation Yrotation
						JOINT LeftElbow
						{
OFFSET 0 -4.764680 -0.000000
CHANNELS 3 Zrotation Xrotation Yrotation
							JOINT LeftWrist
							{
OFFSET 0 -3.527120 -0.000000
CHANNELS 3 Zrotation Xrotation Yrotation
								JOINT lhand
								{
									OFFSET 0 0 0
CHANNELS 3 Zrotation Xrotation Yrotation
									JOINT LFingers
									{
OFFSET 0 -0.859560 -0.000000
CHANNELS 3 Zrotation Xrotation Yrotation
										End Site
										{
OFFSET 0 -0.693000 -0.000000
										}
									}
								}
								JOINT LThumb
								{
OFFSET 0 0.000000 0.000000
CHANNELS 3 Zrotation Xrotation Yrotation
									End Site
									{
OFFSET 0 -0.703580 0.703580
									}
								}
							}
						}
					}
				}
				JOINT RightCollar
				{
					OFFSET 0 0 0
					CHANNELS 3 Zrotation Yrotation Xrotation
					JOINT RightShoulder
					{
						OFFSET -3.31304 1.28268 -0.97357
CHANNELS 3 Zrotation Xrotation Yrotation
						JOINT RightElbow
						{
OFFSET 0 -4.905770 -0.000000
CHANNELS 3 Zrotation Xrotation Yrotation
							JOINT RightWrist
							{
OFFSET 0 -3.426920 0.000000
CHANNELS 3 Zrotation Xrotation Yrotation
								JOINT rhand
								{
									OFFSET 0 0 0
CHANNELS 3 Zrotation Xrotation Yrotation
									JOINT RFingers
									{
OFFSET 0 -0.740960 -0.000000
CHANNELS 3 Zrotation Xrotation Yrotation
										End Site
										{
OFFSET 0 -0.597380 -0.000000
										}
									}
								}
								JOINT RThumb
								{
OFFSET 0 0.000000 0.000000
CHANNELS 3 Zrotation Xrotation Yrotation
									End Site
									{
OFFSET 0 -0.606500 0.606500
									}
								}
							}
						}
					}
				}
			}
		}
	}
}
MOTION
Frames: 6
Frame Time: 0.008333333333333333
0.170200 17.602200 -22.359900 -0.674100 -0.646300 1.649200 0.000000 0.000000 0.000000 -20.011400 -0.306100 -8.733100 2.271900 9.410800 27.088900 1.519500 -6.322000 -22.102100 1.466300 -7.652500 -21.663600 0.000000 0.000000 0.000000 21.945500 1.962100 -9.750300 -2.744800 -10.269900 29.855400 -1.618800 1.082700 -23.747500 -1.539700 -7.833100 22.208300 -1.846100 -1.181300 5.812500 1.884700 -1.631900 -1.425100 3.150900 -0.730300 -4.632400 -10.664700 -8.341600 -6.592000 3.660400 -10.515700 11.429000 2.093700 -5.392500 5.287700 -0.000000 0.000000 0.000000 -9.106300 12.489700 -11.935400 21.863200 -32.822000 6.511500 -4.102500 5.918100 10.286000 0.000000 0.000000 0.000000 -7.125000 0.000000 0.000000 -21.704900 19.935900 -14.035600 -0.000000 0.000000 0.000000 0.180900 -1.056700 8.672200 -8.212300 -13.896400 -1.002500 -7.812100 20.891800 34.982800 0.000000 0.000000 0.000000 7.125000 0.000000 -0.000000 30.748600 62.573700 -13.812900
0.186528 17.602965 -22.356833 -0.435737 -1.083678 1.761694 0.000000 0.000000 0.000000 -20.372763 -0.219810 -8.755436 2.250295 9.369163 26.956959 1.495581 -5.703359 -21.963122 1.732403 -8.246757 -23.490025 0.000000 0.000000 0.000000 21.608198 2.104974 -9.939160 -2.769652 -10.312566 29.994893 -1.617936 1.286628 -23.683811 -1.466899 -7.654021 21.668006 -2.056315 -1.273758 5.820816 1.890230 -1.771190 -1.476119 3.289766 -0.792083 -4.674880 -10.573101 -8.126947 -6.614690 3.272273 -10.189736 11.781698 1.982153 -5.257788 5.353897 0.000000 0.000000 0.000000 -9.734405 12.435124 -9.965941 21.549028 -32.463524 6.342095 2.880057 4.404510 11.985928 0.000000 0.000000 0.000000 -7.125000 0.000000 0.000000 -16.833822 18.247268 -11.210195 0.000000 0.000000 0.000000 0.142536 -1.283451 9.973156 -8.885208 -14.977228 -1.170310 -7.234832 18.290394 34.790499 0.000000 0.000000 0.000000 7.125000 0.000000 0.000000 31.131846 62.264687 -13.776299
0.198928 17.603840 -22.351178 -0.614304 -1.638588 1.868389 0.000000 0.000000 0.000000 -20.229167 -0.018894 -8.845121 2.250347 9.369112 26.957017 1.519871 -5.464752 -22.169065 1.781511 -8.391785 -23.912603 0.000000 0.000000 0.000000 21.740523 2.246672 -9.999080 -2.766306 -10.306777 29.975966 -1.597524 1.348866 -23.513649 -1.396733 -7.476516 21.135095 -1.905594 -1.362147 5.781767 1.977493 -1.873518 -1.479179 3.304016 -0.846400 -4.650470 -10.391745 -7.789789 -6.519106 3.188819 -9.755955 11.861613 1.970060 -5.046376 5.318957 0.000000 0.000000 0.000000 -10.069699 12.191336 -8.304366 21.268927 -32.140904 6.192415 7.076645 1.546513 12.815869 0.000000 0.000000 0.000000 -7.125000 0.000000 0.000000 -13.928556 17.291227 -9.443693 0.000000 0.000000 0.000000 0.123579 -1.426843 12.491853 -9.547312 -16.028308 -1.347376 -7.618852 15.550824 34.776303 0.000000 0.000000 0.000000 7.125000 0.000000 0.000000 30.722917 62.350148 -13.638324
0.208457 17.602459 -22.345843 -0.543003 -2.115532 2.058868 0.000000 0.000000 0.000000 -20.342284 0.137885 -9.059860 2.250396 9.369171 26.957127 1.541054 -5.493473 -22.326610 1.611236 -8.004495 -22.727670 0.000000 0.000000 0.000000 21.623165 2.541835 -10.133256 -2.768847 -10.311120 29.990335 -1.592141 1.454753 -23.443810 -1.274489 -7.154454 20.173967 -2.044775 -1.383258 5.627508 2.058429 -1.907069 -1.446552 3.463659 -0.860907 -4.519897 -10.361635 -7.608752 -6.900870 2.995342 -9.449609 12.084600 1.913707 -4.906197 5.421316 0.000000 0.000000 0.000000 -10.157987 12.037578 -7.309919 21.260463 -32.131089 6.187879 6.475889 1.232419 12.883676 0.000000 0.000000 0.000000 -7.125000 0.000000 0.000000 -14.332664 17.252133 -9.748343 0.000000 0.000000 0.000000 0.054947 -1.776977 14.537328 -10.065127 -16.841279 -1.493798 -8.016626 13.664456 34.408605 0.000000 0.000000 0.000000 7.125000 0.000000 0.000000 29.922757 62.139320 -13.099152
0.213258 17.604123 -22.338243 -0.645854 -2.498096 2.152105 0.000000 0.000000 0.000000 -20.280702 0.216293 -9.137798 2.256665 9.381365 26.995823 1.524566 -5.043690 -22.248074 1.839995 -8.521242 -24.310858 0.000000 0.000000 0.000000 21.710620 2.786004 -10.168602 -2.769257 -10.311826 29.992488 -1.602619 1.533516 -23.501921 -1.296433 -7.213832 20.350451 -1.944931 -1.361815 5.565058 2.096257 -1.868763 -1.452975 3.441378 -0.844527 -4.495820 -10.551805 -7.465344 -6.626042 3.223025 -9.290759 11.881781 2.040820 -4.823385 5.320878 0.000000 0.000000 0.000000 -9.842958 12.041589 -6.926912 21.155570 -32.009393 6.132203 5.189504 2.098739 12.701716 0.000000 0.000000 0.000000 -7.125000 0.000000 0.000000 -15.215748 17.482343 -10.313837 0.000000 0.000000 0.000000 0.229159 -2.021918 15.387124 -10.483191 -17.491723 -1.617218 -7.506259 12.357374 34.725123 0.000000 0.000000 0.000000 7.125000 0.000000 0.000000 30.783723 62.278385 -13.616383
0.217690 17.605188 -22.332862 -0.651892 -2.632130 2.225924 0.000000 0.000000 0.000000 -20.292856 0.306735 -9.207244 2.250370 9.369195 26.957216 1.386193 -4.192350 -21.279086 2.759657 -10.295287 -29.938391 0.000000 0.000000 0.000000 21.689662 2.826612 -10.293379 -2.784015 -10.336903 30.074860 -1.593804 1.620576 -23.412255 -1.284133 -7.180850 20.252326 -2.006594 -1.411308 5.677582 2.095168 -1.940580 -1.495146 3.486545 -0.876080 -4.596405 -10.200956 -7.304248 -6.961935 2.998604 -9.050893 12.096479 1.923046 -4.704305 5.400352 0.000000 0.000000 0.000000 -9.409563 11.864732 -6.367487 20.933712 -31.750884 6.015037 4.526623 2.835250 12.858678 0.000000 0.000000 0.000000 -7.125000 0.000000 0.000000 -15.652479 17.355826 -10.678593 0.000000 0.000000 0.000000 0.550149 -1.956391 16.136165 -10.771578 -17.937310 -1.704920 -7.465528 11.692245 34.632053 0.000000 0.000000 0.000000 7.125000 0.000000 0.000000 30.725161 62.189586 -13.522886
